<?xml version="1.0" ?><!DOCTYPE svg  PUBLIC '-//W3C//DTD SVG 1.1//EN'  'http://www.w3.org/Graphics/SVG/1.1/DTD/svg11.dtd'><svg enable-background="new 0 0 91 91" height="91px" id="Layer_1" version="1.1" viewBox="0 0 91 91" width="91px" xml:space="preserve" xmlns="http://www.w3.org/2000/svg" xmlns:xlink="http://www.w3.org/1999/xlink"><g><path d="M87.492,58.459c0,17.867-17.706,32.351-42.015,32.351c-24.308,0-42.014-14.483-42.014-32.351   c0-5.283-2.573-14.369,2.778-14.675c7.087-0.405,22.115-0.405,39.235-0.405c17.282,0,32.602,0,39.439,0.702   C90.118,44.615,87.492,53.294,87.492,58.459z" fill="#FF889C"/><g><g><path d="M22.864,41.458c-8.342-2.429-16.893-0.107-17.253-0.008c-1.197,0.333-1.898,1.572-1.566,2.77     c0.333,1.197,1.573,1.9,2.77,1.566c0.075-0.021,7.665-2.083,14.792-0.008c0.21,0.062,0.422,0.09,0.63,0.09     c0.975,0,1.873-0.639,2.159-1.622C24.743,43.054,24.057,41.805,22.864,41.458z" fill="#F16B72"/><path d="M85.899,41.458c-8.345-2.428-16.895-0.107-17.253-0.007c-1.196,0.332-1.896,1.57-1.565,2.767     c0.33,1.196,1.568,1.896,2.766,1.57c0.076-0.022,7.709-2.07,14.795-0.008c0.21,0.061,0.422,0.09,0.63,0.09     c0.975,0,1.873-0.639,2.159-1.622C87.778,43.054,87.092,41.805,85.899,41.458z" fill="#F16B72"/></g><path d="M77.245,17.046c-0.211-5.64-2.417-8.879-5.79-11.215c-3.396-2.291-8.199-3.364-12.961-3.352    c-4.414-0.013-8.755,0.918-11.69,2.238l-1.176,0.521l-1.175-0.521c-2.353-1.072-5.637-1.859-9.124-2.142l-6.013,0.08    c-3.549,0.401-6.933,1.436-9.516,3.185c-3.375,2.326-5.581,5.571-5.787,11.198c-0.012,0.453-0.02,0.869-0.02,1.244    c0.063,7.957,1.89,10.821,4.098,14.837c2.279,3.944,4.892,8.991,4.819,18.322c0,10.838,1.835,17.203,3.832,20.565    c2.036,3.379,2.716,3.887,4.934,3.887c2.336,0,3.146-2.363,3.248-3.611c0.45-4.587-0.333-11.761,1.931-19.411    c0.651-2.12,1.443-4.767,3.031-7.159c2.138-3.226,7.918-5.751,11.486,0c1.512,2.442,2.38,5.039,3.024,7.159    c1.736,5.828,2.24,11.919,1.834,16.571c-0.57,6.473,3.223,6.451,3.347,6.451c2.02,0,2.896-0.508,4.921-3.887    c2.007-3.362,3.845-9.728,3.84-20.565c-0.065-9.355,2.551-14.378,4.834-18.33c2.209-4.009,4.013-6.872,4.085-14.829    C77.258,17.896,77.251,17.484,77.245,17.046z" fill="#F4F2E8"/><path d="M79.498,17.237l-0.005-0.275c-0.217-5.814-2.364-9.938-6.78-12.996c-3.571-2.41-8.592-3.736-14.135-3.736    h-0.173c-4.45,0-9.133,0.911-12.514,2.432l-0.263,0.117L45.386,2.67c-2.645-1.206-6.152-2.036-9.875-2.337    c-0.07-0.006-0.144-0.006-0.211-0.007l-6.013,0.08c-0.075,0.001-0.149,0.006-0.223,0.014c-4.14,0.468-7.779,1.698-10.54,3.568    c-4.398,3.031-6.546,7.152-6.759,12.993c-0.013,0.474-0.021,0.91-0.021,1.32c0.064,8.107,1.902,11.431,4.032,15.28l0.368,0.666    c2.322,4.018,4.583,8.654,4.518,17.196c0,12.176,2.255,18.529,4.155,21.727c2.085,3.46,3.364,4.976,6.861,4.976    c3.298,0,5.259-2.855,5.487-5.642c0.142-1.447,0.168-3.111,0.197-4.873c0.064-4.021,0.145-9.024,1.646-14.097l0.046-0.15    c0.628-2.045,1.339-4.361,2.71-6.427c0.798-1.205,2.498-2.423,4.201-2.423c1.346,0,2.523,0.796,3.497,2.365    c1.329,2.146,2.124,4.455,2.781,6.617c1.512,5.075,2.166,10.957,1.749,15.731c-0.278,3.156,0.315,5.559,1.766,7.143    c1.492,1.629,3.301,1.756,3.819,1.756h0.003c3.308,0,4.786-1.536,6.853-4.983c1.9-3.184,4.164-9.535,4.158-21.734    c-0.06-8.519,2.206-13.163,4.555-17.229l0.313-0.565c2.134-3.854,3.978-7.184,4.052-15.35    C79.508,17.953,79.503,17.604,79.498,17.237z M71.52,31.453l-0.295,0.534c-2.521,4.362-5.203,9.824-5.136,19.457    c0.005,11.746-2.204,17.204-3.52,19.407c-1.66,2.771-1.975,2.794-2.966,2.794c-0.07-0.008-0.326-0.055-0.561-0.331    c-0.243-0.288-0.786-1.221-0.57-3.675c0.471-5.39-0.229-11.735-1.923-17.421c-0.713-2.348-1.659-5.097-3.265-7.691    c-1.799-2.898-4.398-4.494-7.322-4.494c-3.462,0-6.488,2.229-7.951,4.436c-1.731,2.608-2.58,5.372-3.262,7.593l-0.053,0.172    c-1.682,5.685-1.768,11.029-1.836,15.324c-0.028,1.739-0.052,3.242-0.179,4.541c-0.001,0.016-0.178,1.546-1.005,1.546    c-1.195,0-1.32,0-2.999-2.786c-1.313-2.211-3.517-7.674-3.517-19.398c0.075-9.655-2.604-15.11-5.098-19.424l-0.35-0.634    c-1.982-3.583-3.415-6.172-3.469-13.119c0-0.357,0.008-0.754,0.018-1.162c0.161-4.393,1.601-7.212,4.8-9.417    c2.123-1.438,5.024-2.405,8.398-2.8l5.791-0.077c3.132,0.263,6.141,0.968,8.289,1.947l1.102,0.489l7.992,4.24    c0.336,0.178,0.697,0.263,1.053,0.263c0.806,0,1.586-0.435,1.989-1.196c0.583-1.098,0.165-2.46-0.933-3.042L51.15,5.622    c2.262-0.565,4.818-0.892,7.255-0.892h0.173c4.588,0,8.823,1.082,11.596,2.951c3.216,2.227,4.658,5.053,4.821,9.396l0.003,0.224    c0.005,0.345,0.01,0.673,0.01,0.963C74.944,25.268,73.508,27.862,71.52,31.453z" fill="#3B6A75"/><path d="M61.106,31.977c-0.427-1.292-3.358-8.573-15.351-9.25c-10.538-0.584-14.878,7.336-15.72,11.68    c-8.618,34.542,2.666,45.979,3.15,46.45c0.885,0.857,2.284,0.833,3.152-0.039c0.869-0.873,0.863-2.293,0-3.172    c-0.088-0.09-7.771-8.31-3.951-32.337c0.068-0.139,0.127-0.285,0.167-0.441c0.093-0.371,2.356-9.068,9.612-8.546    c1.236,0.09,2.317-0.842,2.406-2.082s-0.843-2.317-2.082-2.406c-3.055-0.225-5.566,0.62-7.604,1.986    c0.928-2.445,3.606-6.993,10.614-6.599c9.5,0.536,11.26,5.928,11.32,6.125c0.026,0.097,0.061,0.194,0.1,0.287    c0.008,0.018,0.082,0.201,0.199,0.517c-2.151-1.312-4.846-2.131-8.167-1.916c-1.24,0.082-2.179,1.153-2.097,2.394    c0.082,1.24,1.135,2.179,2.394,2.097c7.88-0.53,10.066,7.149,10.157,7.48c0.057,0.21,0.146,0.402,0.255,0.58    c1.172,8.374,1.12,20.575-4.898,33.509c-0.524,1.127-0.036,2.465,1.091,2.989c0.307,0.143,0.63,0.211,0.948,0.211    c0.848,0,1.659-0.482,2.041-1.302C70.325,55.517,61.893,33.881,61.106,31.977z" fill="#F16B72"/></g><path d="M67.801,24.271c-0.175,0-0.352-0.023-0.528-0.071c-1.065-0.292-1.693-1.391-1.401-2.457   c1.901-6.957-2.713-8.84-3.245-9.032c-1.031-0.372-1.581-1.509-1.22-2.544c0.36-1.036,1.476-1.591,2.518-1.24   c3.039,1.025,8.164,5.244,5.805,13.871C69.486,23.687,68.68,24.271,67.801,24.271z" fill="#FFFFFF"/></g></svg>