<?xml version="1.0" ?><!DOCTYPE svg  PUBLIC '-//W3C//DTD SVG 1.1//EN'  'http://www.w3.org/Graphics/SVG/1.1/DTD/svg11.dtd'><svg enable-background="new 0 0 512 512" height="512px" version="1.1" viewBox="0 0 512 512" width="512px" xml:space="preserve" xmlns="http://www.w3.org/2000/svg" xmlns:xlink="http://www.w3.org/1999/xlink"><g id="Layer_1"><g><path d="M210.763,311.041c9.572-12.309,6.059-31.098-7.829-41.908l-34.717,44.619    C182.113,324.566,201.187,323.344,210.763,311.041z"/><path d="M90.513,494.729c19.967,15.534,48.018,13.459,65.532-3.863l-74.808-65.25C65.014,447.278,69.057,478.048,90.513,494.729z"/><path d="M305.161,174.011c-8.864,9.397-17.767,18.836-26.546,28.146c-14.549,0.248-28.871,6.804-38.514,19.191l-27.087,34.837    c21.02,16.356,25.826,45.492,10.701,64.93c-15.132,19.444-44.545,21.962-65.573,5.595l-73.037,93.887l75.15,65.55    c0.038-0.052,0.081-0.093,0.119-0.142l158.323-203.52c10.354-13.322,12.857-30.237,8.254-45.221    c7.576-12.351,15.271-24.911,22.904-37.373C333.069,194.443,317.904,185.511,305.161,174.011z"/><path d="M431.642,42.659c-1.604-0.259-56.711,57.526-116.149,120.423c12.033,10.734,26.231,19.164,41.902,24.513    c44.025-71.931,83.767-137.341,83.296-138.303C439.654,47.148,435.167,43.232,431.642,42.659z"/><path d="M306.099,173.021c12.666,11.44,27.768,20.307,44.481,25.688c0.848-1.375,1.693-2.765,2.543-4.135    c-16.164-5.631-30.75-14.495-43.03-25.782C308.763,170.204,307.431,171.615,306.099,173.021z"/><path d="M311.022,167.806c12.218,11.217,26.735,20.022,42.831,25.579c0.931-1.539,1.875-3.074,2.811-4.61    c-15.734-5.418-29.999-13.906-42.104-24.71C313.375,165.31,312.201,166.563,311.022,167.806z"/><path d="M403.689,47.876c2.105,2.013,6.254,1.093,9.25-2.05c2.995-3.149,3.711-7.325,1.606-9.343l-27.143-25.835    c-2.105-2.011-6.256-1.094-9.25,2.048c-2.992,3.147-3.712,7.322-1.589,9.345L403.689,47.876z"/><path d="M385.607,66.862c2.119,2.019,6.257,1.091,9.249-2.048c2.994-3.15,3.712-7.333,1.599-9.343l-27.133-25.844    c-2.108-2.01-6.251-1.089-9.253,2.056c-2.984,3.141-3.712,7.33-1.589,9.342L385.607,66.862z"/><path d="M367.523,85.842c2.121,2.015,6.257,1.098,9.249-2.049c3.002-3.144,3.729-7.329,1.606-9.34l-27.141-25.839    c-2.106-2.013-6.246-1.094-9.248,2.05c-2.995,3.146-3.712,7.329-1.593,9.345L367.523,85.842z"/></g></g></svg>